<svg id="Edit" xmlns="http://www.w3.org/2000/svg" viewBox="0 0 511.47 474.19"><defs><style>.cls-1{fill:#52525b;}</style></defs><title>NRD-00001_02013_ICO_Edit 52525b_001</title><g id="cccccc"><path class="cls-1" d="M452.7,493.33H20.8A20.8,20.8,0,0,1,0,472.53V39.94a20.8,20.8,0,0,1,20.8-20.8H346.63a20.8,20.8,0,1,1,0,41.59H41.6v391H431.91V235.09a20.8,20.8,0,1,1,41.59,0V472.53A20.8,20.8,0,0,1,452.7,493.33Z" transform="translate(0 -19.14)"/><rect class="cls-1" x="166.38" y="165.19" width="328.44" height="80.01" transform="translate(-48.26 274.73) rotate(-45)"/><path class="cls-1" d="M499.56,37.28a40.64,40.64,0,0,1,0,57.49L442.07,37.28A40.64,40.64,0,0,1,499.56,37.28Z" transform="translate(0 -19.14)"/><polygon class="cls-1" points="162.24 297.88 126.89 390.09 215.62 354.04 162.24 297.88"/></g></svg>