<svg id="Save" xmlns="http://www.w3.org/2000/svg" viewBox="0 0 510.67 511"><defs><style>.cls-1{fill:#f26722;}.cls-2{fill:#cccccb;}</style></defs><title>NRD-00001_02013_ICO_GUI Save cccccc_001</title><g id="Save-2" data-name="Save"><path class="cls-1" d="M496.65,512H14A14.06,14.06,0,0,1,0,498V15A14.06,14.06,0,0,1,14,1H425.43l85.24,83.35V498A14.06,14.06,0,0,1,496.65,512ZM437.1,237.8H68.89V487.85H437.1Zm-28.41-66.6V52a14.06,14.06,0,0,0-14-14H110.54a14.05,14.05,0,0,0-14,14V171.2a14,14,0,0,0,14,14H394.68A14.05,14.05,0,0,0,408.69,171.2Z" transform="translate(0 -1)"/><rect class="cls-1" x="107.82" y="288.61" width="289.59" height="11.68"/><rect class="cls-1" x="107.82" y="328.33" width="289.59" height="11.68"/><rect class="cls-1" x="107.82" y="364.56" width="289.59" height="11.68"/><rect class="cls-1" x="107.82" y="404.28" width="289.59" height="11.68"/><rect class="cls-1" x="288.42" y="58.42" width="52.16" height="106.72"/></g><g id="Save-3" data-name="Save"><path class="cls-2" d="M496.65,512H14A14.06,14.06,0,0,1,0,498V15A14.06,14.06,0,0,1,14,1H425.43l85.24,83.35V498A14.06,14.06,0,0,1,496.65,512ZM437.1,237.8H68.89V487.85H437.1Zm-28.41-66.6V52a14.06,14.06,0,0,0-14-14H110.54a14.05,14.05,0,0,0-14,14V171.2a14,14,0,0,0,14,14H394.68A14.05,14.05,0,0,0,408.69,171.2Z" transform="translate(0 -1)"/><rect class="cls-2" x="107.82" y="288.61" width="289.59" height="11.68"/><rect class="cls-2" x="107.82" y="328.33" width="289.59" height="11.68"/><rect class="cls-2" x="107.82" y="364.56" width="289.59" height="11.68"/><rect class="cls-2" x="107.82" y="404.28" width="289.59" height="11.68"/><rect class="cls-2" x="288.42" y="58.42" width="52.16" height="106.72"/></g></svg>