<svg id="Delete" xmlns="http://www.w3.org/2000/svg" viewBox="0 0 404.36 512"><defs><style>.cls-1{fill:#52525b;}</style></defs><title>NRD-00001_02013_ICO_Delete 52525b_001</title><g id="cccccc"><path class="cls-1" d="M370.46,115.72V468.6H141.85V115.72Zm-64-43.39H205.87V43.4H306.43V72.33m43.4,0V21.7A21.7,21.7,0,0,0,328.13,0H184.18a21.69,21.69,0,0,0-21.7,21.7V72.33h-87a21.7,21.7,0,1,0,0,43.39H98.21V490.3a21.7,21.7,0,0,0,21.7,21.7h272a21.69,21.69,0,0,0,21.69-21.7l-.09-374.58H436.4a21.7,21.7,0,1,0,0-43.39Z" transform="translate(-53.73)"/><path class="cls-1" d="M324.89,442.21a21.7,21.7,0,0,1-21.69-21.7V163.93a21.7,21.7,0,0,1,43.39,0V420.51A21.7,21.7,0,0,1,324.89,442.21Z" transform="translate(-53.73)"/><path class="cls-1" d="M255.46,454.68a21.7,21.7,0,0,1-21.7-21.7V151.46a21.7,21.7,0,0,1,43.4,0V433A21.7,21.7,0,0,1,255.46,454.68Z" transform="translate(-53.73)"/><path class="cls-1" d="M188.2,442.21a21.71,21.71,0,0,1-21.7-21.7V163.93a21.7,21.7,0,0,1,43.4,0V420.51A21.71,21.71,0,0,1,188.2,442.21Z" transform="translate(-53.73)"/></g></svg>